<svg id="Layer_1" data-name="Layer 1" xmlns="http://www.w3.org/2000/svg" viewBox="0 0 250 250"><defs><style>.cls-1{fill:#006ca9;}</style></defs><title>button2</title><path class="cls-1" d="M190,115v-6.59a21.63,21.63,0,0,0-21.61-21.61H81.64A21.63,21.63,0,0,0,60,108.44V115Z"/><path class="cls-1" d="M60,120.1H43.82a5.4,5.4,0,0,0-5.41,5.4v32.42a5.4,5.4,0,0,0,5.41,5.4H206.18a5.4,5.4,0,0,0,5.41-5.4V125.5a5.41,5.41,0,0,0-5.41-5.4H60Z"/><path class="cls-1" d="M159.79,185.66c3.71-6.1,1-12.08-6.28-12.08H96.44c-7.12,0-10,5.86-6.22,12.08L118,231c3.65,6,10.41,5.87,14.06,0Z"/><rect class="cls-1" x="92.01" y="14.05" width="20.13" height="61.06"/><rect class="cls-1" x="137.86" y="14.05" width="20.13" height="61.06"/></svg>