<svg id="Layer_1" data-name="Layer 1" xmlns="http://www.w3.org/2000/svg" viewBox="0 0 250 250"><defs><style>.cls-1{fill:#006ca9;}</style></defs><title>button</title><path class="cls-1" d="M190,118v-6.6A21.66,21.66,0,0,0,168.4,89.8H81.6A21.66,21.66,0,0,0,60,111.43V118Z"/><path class="cls-1" d="M60,123.09H43.75a5.4,5.4,0,0,0-5.4,5.41V161a5.4,5.4,0,0,0,5.4,5.4h162.5a5.4,5.4,0,0,0,5.4-5.4V128.5a5.4,5.4,0,0,0-5.4-5.41H60Z"/><path class="cls-1" d="M159.81,188.71c3.72-6.11,1-12.09-6.28-12.09H96.42c-7.13,0-10,5.86-6.23,12.09L118,234.09c3.65,6,10.42,5.86,14.07,0Z"/><rect class="cls-1" x="114.92" y="16.96" width="20.15" height="61.11"/></svg>